<?xml version="1.0" encoding="utf-8"?>
<!-- Generator: Adobe Illustrator 15.0.0, SVG Export Plug-In . SVG Version: 6.00 Build 0)  -->
<!DOCTYPE svg PUBLIC "-//W3C//DTD SVG 1.1//EN" "http://www.w3.org/Graphics/SVG/1.1/DTD/svg11.dtd">
<svg version="1.1" id="Layer_1" xmlns="http://www.w3.org/2000/svg" xmlns:xlink="http://www.w3.org/1999/xlink" x="0px" y="0px"
	 width="800px" height="300px" viewBox="0 0 800 300" enable-background="new 0 0 800 300" xml:space="preserve">
<polygon fill="#12A012" stroke="#268426" stroke-miterlimit="10" points="459.008,117.978 458.907,100.936 444.042,101.034 
	457.315,96.006 442.625,88.56 457.997,91.068 447.378,78.49 460.683,88.612 461.51,72.936 466.801,89.779 473.128,75.388 
	472.782,91.421 481.093,78.037 477.207,92.104 497.419,86.826 482.753,95.014 502.078,96.669 481.5,100.5 493.5,110.5 
	476.092,104.688 467.73,119.525 "/>
<g>
	<ellipse cx="169.383" cy="156.579" rx="86.589" ry="85.981"/>
	<ellipse fill="#EDFC27" cx="169.75" cy="157.04" rx="79.25" ry="78.46"/>
	<path opacity="0.33" fill="#050505" d="M107.5,180.5"/>
	<path opacity="0.33" fill="#050505" d="M218,158"/>
	<path opacity="0.33" fill="#050505" d="M107.5,176.424"/>
	<path fill="#050505" d="M223.25,192.5c4.25-12-3.389-34.5-3.389-34.5L107,176c0,0,0,0.424,0,4.5c2.634-0.243,5-0.583,5-0.583
		s-0.229,1.629,1.667,5.083c5.678,10.346,18.64,29.743,29.583,36c9.097,5.201,26.327,11.231,46,3.75
		C207,218,218.125,206.97,223.25,192.5z"/>
	<path fill="#AC27AF" d="M201.18,211.998c5.475-5.098,16.393-14.759,17.32-24.998c0.89-9.825-2.625-23.75-2.625-23.75l-99.125,16
		c0,0,2,4.441,3.5,7.75c3.511,7.743,13.762,19.473,20,25.25c7.036,6.517,21.692,11.302,29,11.25
		C178.007,223.438,193.543,219.108,201.18,211.998z"/>
	<path fill="#F2B3F4" d="M170.336,223.471c3.081,0,9.939-1.534,9.939-1.534c4.502-0.881,10.903-3.497,15.031-5.754
		c6.277-3.433,15.101-12.946,15.101-12.946s-5.702-4.579-7.907-5.569c-4.706-2.112-15.508-3.633-20.5-2.334
		c-4.392,1.143-12.026,6.954-14.75,10.584c-2.646,3.525-5.973,12.178-5.973,16.585C161.277,222.502,164.5,223.471,170.336,223.471z"
		/>
	<path fill="#020202" d="M112.765,118.662c15.959-3.654,25.269,6.42,28.314,17.696c2.735,10.125,1.152,19.343,1.152,19.343
		l-40.084,7.549c0,0-3.988-7.883-5.147-16.932C95.566,135.119,98.044,122.032,112.765,118.662z"/>
	<path fill="#FFFFFF" d="M104.452,158.006l33.582-6.256c0,0,0.084-9.643-2.305-15.309c-3.54-8.396-10.783-14.239-20.771-13.26
		c-8.417,0.825-13.853,12.59-13.387,21.491C102.032,153.479,104.452,158.006,104.452,158.006z"/>
	<path fill="#020202" d="M186.765,106.662c15.959-3.654,27.403,6.733,30.449,18.009c2.735,10.125,1.399,18.519,1.399,18.519
		l-46.34,8.06c0,0-4.108-5.348-5.268-14.397C165.572,125.654,172.044,110.032,186.765,106.662z"/>
	<path fill="#FFFFFF" d="M174.331,145.989l39.703-7.239c0,0,0.084-9.643-2.305-15.309c-3.54-8.396-12.429-13.453-22.418-12.474
		c-8.417,0.825-17.916,12.21-17.45,21.112C172.322,140.885,174.331,145.989,174.331,145.989z"/>
	<ellipse fill="#050505" cx="126.959" cy="131.759" rx="8.851" ry="8.685"/>
	<ellipse fill="#050505" cx="202.959" cy="118.759" rx="8.851" ry="8.685"/>
</g>
<g>
	<path fill="#003800" d="M284.871,146.559c3.976,56.864,6.387,103.441-10.697,104.212c-23.92,1.08-21.121-44.846-25.097-101.709
		c-3.977-56.864-15.425-108.13,10.697-104.212C284.792,48.601,280.895,89.695,284.871,146.559z"/>
	<path fill="#096B09" d="M281.879,146.134c1.287,24.453,8.007,96.345-6.497,100.745c-22.912,6.951-19.406-42.16-23.382-99.024
		c-3.977-56.864-14.638-101.547,12.31-96.285C273.381,53.341,278.941,90.329,281.879,146.134z"/>
	<path fill="#21C121" d="M254.988,151.258c3.469,49.615,2.439,87.072,10.361,89.553c2.157,0.674-2.671-40.322-6.141-89.938
		s-0.602-92.422-6.423-89.737C244.808,64.815,251.519,101.642,254.988,151.258z"/>
	<path fill="#21C121" d="M278.585,147.828c-3.47-49.615-6.321-85.856-13.721-89.618c-3.621-1.842,4.464,40.259,7.934,89.874
		c3.47,49.616-1.753,90.402,4.63,89.801C286.524,237.027,282.055,197.444,278.585,147.828z"/>
	<path fill="#21C121" d="M263.854,177.703c3.469,49.615,0.833,58.387,8.755,60.864c2.156,0.675-2.102-12.132-1.831-62.022
		c0.27-49.738-8.514-109.54-11.045-118.519C257.351,49.569,260.385,128.087,263.854,177.703z"/>
</g>
<ellipse fill="#B5395C" cx="49.75" cy="73.75" rx="23.75" ry="24.25"/>
<ellipse fill="#EA92AD" cx="49.5" cy="72.75" rx="21.5" ry="20.75"/>
<path fill="#E06994" d="M44.826,65.712c0,1.849-1.475,3.348-3.294,3.348c-1.819,0-3.727-0.756-3.294-3.348
	c0.304-1.824,1.547-2.84,3.294-3.348C44.502,61.5,44.826,63.863,44.826,65.712z"/>
<ellipse fill="#E06994" cx="59.894" cy="64.146" rx="3.51" ry="4.158"/>
<path fill="#E06994" d="M60.164,82.562c0,2.147-1.346,3.78-2.24,3.78s-3.268-1.849-3.268-3.997c0-2.148,2.374-3.78,3.268-3.78
	S60.164,80.414,60.164,82.562z"/>
<path fill="#E06994" d="M42.018,81.239c-0.784,2.222-1.257,4.267-2.808,4.267s-2.808-1.91-2.808-4.267
	c0-2.356,1.257-4.266,2.808-4.266S42.99,78.485,42.018,81.239z"/>
<path fill="#E06994" d="M54.439,70.789c0,1.968-1.271,3.013-2.592,3.564c-2.592,1.08-2.592-1.596-2.592-3.564
	c0-1.969,1.161-3.564,2.592-3.564C53.278,67.225,54.439,68.82,54.439,70.789z"/>
<path fill="#E06994" d="M53.791,58.368c0,1.551-1.846,2.16-3.456,2.16c-1.611,0-2.917-0.54-2.917-2.808
	c0-1.551,1.322-2.58,2.917-2.808C52.603,54.587,53.791,56.817,53.791,58.368z"/>
<path fill="#E06994" d="M35.97,71.761c0,1.193-0.75,2.16-1.674,2.16c-0.925,0-2.539-0.216-1.674-2.16
	c0.484-1.09,0.75-2.16,1.674-2.16C35.22,69.601,35.97,70.568,35.97,71.761z"/>
<ellipse fill="#E06994" cx="65.888" cy="76.945" rx="2.484" ry="3.24"/>
<ellipse fill="#E06994" cx="47.365" cy="84.344" rx="2.646" ry="3.187"/>
<g>
	<ellipse fill="#B5395C" cx="56.75" cy="111.75" rx="23.75" ry="24.25"/>
	<ellipse fill="#EA92AD" cx="56.5" cy="110.75" rx="21.5" ry="20.75"/>
	<path fill="#E06994" d="M51.826,103.712c0,1.849-1.475,3.348-3.294,3.348c-1.819,0-3.727-0.756-3.294-3.348
		c0.304-1.824,1.547-2.84,3.294-3.348C51.502,99.5,51.826,101.863,51.826,103.712z"/>
	<ellipse fill="#E06994" cx="66.894" cy="102.146" rx="3.51" ry="4.158"/>
	<path fill="#E06994" d="M67.164,120.562c0,2.147-1.346,3.78-2.24,3.78s-3.268-1.849-3.268-3.997c0-2.148,2.374-3.78,3.268-3.78
		S67.164,118.414,67.164,120.562z"/>
	<path fill="#E06994" d="M49.018,119.239c-0.784,2.222-1.257,4.267-2.808,4.267s-2.808-1.91-2.808-4.267
		c0-2.356,1.257-4.266,2.808-4.266S49.99,116.485,49.018,119.239z"/>
	<path fill="#E06994" d="M61.439,108.789c0,1.968-1.271,3.013-2.592,3.564c-2.592,1.08-2.592-1.596-2.592-3.564
		c0-1.969,1.161-3.564,2.592-3.564C60.278,105.225,61.439,106.82,61.439,108.789z"/>
	<path fill="#E06994" d="M60.791,96.368c0,1.551-1.846,2.16-3.456,2.16c-1.611,0-2.917-0.54-2.917-2.808
		c0-1.551,1.322-2.58,2.917-2.808C59.603,92.587,60.791,94.817,60.791,96.368z"/>
	<path fill="#E06994" d="M42.97,109.761c0,1.193-0.75,2.16-1.674,2.16c-0.925,0-2.539-0.216-1.674-2.16
		c0.484-1.09,0.75-2.16,1.674-2.16C42.22,107.601,42.97,108.568,42.97,109.761z"/>
	<ellipse fill="#E06994" cx="72.888" cy="114.945" rx="2.484" ry="3.24"/>
	<ellipse fill="#E06994" cx="54.365" cy="122.344" rx="2.646" ry="3.187"/>
</g>
<g>
	<ellipse fill="#B5395C" cx="59.75" cy="153.75" rx="23.75" ry="24.25"/>
	<ellipse fill="#EA92AD" cx="59.5" cy="152.75" rx="21.5" ry="20.75"/>
	<path fill="#E06994" d="M54.826,145.712c0,1.849-1.475,3.348-3.294,3.348c-1.819,0-3.727-0.756-3.294-3.348
		c0.304-1.824,1.547-2.84,3.294-3.348C54.502,141.5,54.826,143.863,54.826,145.712z"/>
	<ellipse fill="#E06994" cx="69.894" cy="144.146" rx="3.51" ry="4.158"/>
	<path fill="#E06994" d="M70.164,162.562c0,2.146-1.346,3.779-2.24,3.779s-3.268-1.849-3.268-3.996c0-2.148,2.374-3.78,3.268-3.78
		S70.164,160.414,70.164,162.562z"/>
	<path fill="#E06994" d="M52.018,161.239c-0.784,2.222-1.257,4.267-2.808,4.267s-2.808-1.91-2.808-4.267s1.257-4.267,2.808-4.267
		S52.99,158.485,52.018,161.239z"/>
	<path fill="#E06994" d="M64.439,150.789c0,1.969-1.271,3.014-2.592,3.564c-2.592,1.08-2.592-1.596-2.592-3.564
		s1.161-3.564,2.592-3.564C63.278,147.225,64.439,148.82,64.439,150.789z"/>
	<path fill="#E06994" d="M63.791,138.368c0,1.551-1.846,2.16-3.456,2.16c-1.611,0-2.917-0.54-2.917-2.808
		c0-1.551,1.322-2.58,2.917-2.808C62.603,134.587,63.791,136.817,63.791,138.368z"/>
	<path fill="#E06994" d="M45.97,151.761c0,1.192-0.75,2.16-1.674,2.16c-0.925,0-2.539-0.216-1.674-2.16
		c0.484-1.09,0.75-2.16,1.674-2.16C45.22,149.601,45.97,150.568,45.97,151.761z"/>
	<ellipse fill="#E06994" cx="75.888" cy="156.945" rx="2.484" ry="3.24"/>
	<ellipse fill="#E06994" cx="57.365" cy="164.344" rx="2.646" ry="3.187"/>
</g>
<g>
	<ellipse fill="#B5395C" cx="60.75" cy="189.75" rx="23.75" ry="24.25"/>
	<ellipse fill="#EA92AD" cx="60.5" cy="188.75" rx="21.5" ry="20.75"/>
	<path fill="#E06994" d="M55.826,181.713c0,1.849-1.475,3.348-3.294,3.348c-1.819,0-3.727-0.756-3.294-3.348
		c0.304-1.824,1.547-2.84,3.294-3.349C55.502,177.5,55.826,179.863,55.826,181.713z"/>
	<ellipse fill="#E06994" cx="70.894" cy="180.146" rx="3.51" ry="4.158"/>
	<path fill="#E06994" d="M71.164,198.562c0,2.146-1.346,3.779-2.24,3.779s-3.268-1.849-3.268-3.996c0-2.148,2.374-3.78,3.268-3.78
		S71.164,196.414,71.164,198.562z"/>
	<path fill="#E06994" d="M53.018,197.239c-0.784,2.222-1.257,4.267-2.808,4.267s-2.808-1.91-2.808-4.267s1.257-4.267,2.808-4.267
		S53.99,194.485,53.018,197.239z"/>
	<path fill="#E06994" d="M65.439,186.789c0,1.969-1.271,3.014-2.592,3.564c-2.592,1.08-2.592-1.596-2.592-3.564
		s1.161-3.564,2.592-3.564C64.278,183.225,65.439,184.82,65.439,186.789z"/>
	<path fill="#E06994" d="M64.791,174.367c0,1.551-1.846,2.16-3.456,2.16c-1.611,0-2.917-0.539-2.917-2.808
		c0-1.551,1.322-2.58,2.917-2.808C63.603,170.588,64.791,172.816,64.791,174.367z"/>
	<path fill="#E06994" d="M46.97,187.761c0,1.192-0.75,2.16-1.674,2.16c-0.925,0-2.539-0.216-1.674-2.16
		c0.484-1.09,0.75-2.16,1.674-2.16C46.22,185.601,46.97,186.568,46.97,187.761z"/>
	<ellipse fill="#E06994" cx="76.888" cy="192.945" rx="2.484" ry="3.24"/>
	<ellipse fill="#E06994" cx="58.365" cy="200.344" rx="2.646" ry="3.187"/>
</g>
<g>
	<ellipse fill="#B5395C" cx="60.75" cy="229.75" rx="23.75" ry="24.25"/>
	<ellipse fill="#EA92AD" cx="60.5" cy="228.75" rx="21.5" ry="20.75"/>
	<path fill="#E06994" d="M55.826,221.713c0,1.849-1.475,3.348-3.294,3.348c-1.819,0-3.727-0.756-3.294-3.348
		c0.304-1.824,1.547-2.84,3.294-3.349C55.502,217.5,55.826,219.863,55.826,221.713z"/>
	<ellipse fill="#E06994" cx="70.894" cy="220.146" rx="3.51" ry="4.158"/>
	<path fill="#E06994" d="M71.164,238.562c0,2.146-1.346,3.779-2.24,3.779s-3.268-1.849-3.268-3.996c0-2.148,2.374-3.78,3.268-3.78
		S71.164,236.414,71.164,238.562z"/>
	<path fill="#E06994" d="M53.018,237.239c-0.784,2.222-1.257,4.267-2.808,4.267s-2.808-1.91-2.808-4.267s1.257-4.267,2.808-4.267
		S53.99,234.485,53.018,237.239z"/>
	<path fill="#E06994" d="M65.439,226.789c0,1.969-1.271,3.014-2.592,3.564c-2.592,1.08-2.592-1.596-2.592-3.564
		s1.161-3.564,2.592-3.564C64.278,223.225,65.439,224.82,65.439,226.789z"/>
	<path fill="#E06994" d="M64.791,214.367c0,1.551-1.846,2.16-3.456,2.16c-1.611,0-2.917-0.539-2.917-2.808
		c0-1.551,1.322-2.58,2.917-2.808C63.603,210.588,64.791,212.816,64.791,214.367z"/>
	<path fill="#E06994" d="M46.97,227.761c0,1.192-0.75,2.16-1.674,2.16c-0.925,0-2.539-0.216-1.674-2.16
		c0.484-1.09,0.75-2.16,1.674-2.16C46.22,225.601,46.97,226.568,46.97,227.761z"/>
	<ellipse fill="#E06994" cx="76.888" cy="232.945" rx="2.484" ry="3.24"/>
	<ellipse fill="#E06994" cx="58.365" cy="240.344" rx="2.646" ry="3.187"/>
</g>
<g>
	<ellipse fill="#B5395C" cx="94.75" cy="214.75" rx="23.75" ry="24.25"/>
	<ellipse fill="#EA92AD" cx="94.5" cy="213.75" rx="21.5" ry="20.75"/>
	<path fill="#E06994" d="M89.826,206.713c0,1.849-1.475,3.348-3.294,3.348c-1.819,0-3.727-0.756-3.294-3.348
		c0.304-1.824,1.547-2.84,3.294-3.349C89.502,202.5,89.826,204.863,89.826,206.713z"/>
	<ellipse fill="#E06994" cx="104.894" cy="205.146" rx="3.51" ry="4.158"/>
	<path fill="#E06994" d="M105.164,223.562c0,2.146-1.346,3.779-2.24,3.779s-3.268-1.849-3.268-3.996c0-2.148,2.374-3.78,3.268-3.78
		S105.164,221.414,105.164,223.562z"/>
	<path fill="#E06994" d="M87.018,222.239c-0.784,2.222-1.257,4.267-2.808,4.267s-2.808-1.91-2.808-4.267s1.257-4.267,2.808-4.267
		S87.99,219.485,87.018,222.239z"/>
	<path fill="#E06994" d="M99.439,211.789c0,1.969-1.271,3.014-2.592,3.564c-2.592,1.08-2.592-1.596-2.592-3.564
		s1.161-3.564,2.592-3.564C98.278,208.225,99.439,209.82,99.439,211.789z"/>
	<path fill="#E06994" d="M98.791,199.367c0,1.551-1.846,2.16-3.456,2.16c-1.611,0-2.917-0.539-2.917-2.808
		c0-1.551,1.322-2.58,2.917-2.808C97.603,195.588,98.791,197.816,98.791,199.367z"/>
	<path fill="#E06994" d="M80.97,212.761c0,1.192-0.75,2.16-1.674,2.16c-0.925,0-2.539-0.216-1.674-2.16
		c0.484-1.09,0.75-2.16,1.674-2.16C80.22,210.601,80.97,211.568,80.97,212.761z"/>
	<ellipse fill="#E06994" cx="110.888" cy="217.945" rx="2.484" ry="3.24"/>
	<ellipse fill="#E06994" cx="92.365" cy="225.344" rx="2.646" ry="3.187"/>
</g>
<g>
	<ellipse fill="#B5395C" cx="130.75" cy="204.75" rx="23.75" ry="24.25"/>
	<ellipse fill="#EA92AD" cx="130.5" cy="203.75" rx="21.5" ry="20.75"/>
	<path fill="#E06994" d="M125.826,196.713c0,1.849-1.475,3.348-3.294,3.348c-1.819,0-3.727-0.756-3.294-3.348
		c0.304-1.824,1.547-2.84,3.294-3.349C125.502,192.5,125.826,194.863,125.826,196.713z"/>
	<ellipse fill="#E06994" cx="140.894" cy="195.146" rx="3.51" ry="4.158"/>
	<path fill="#E06994" d="M141.164,213.562c0,2.146-1.346,3.779-2.24,3.779s-3.268-1.849-3.268-3.996c0-2.148,2.374-3.78,3.268-3.78
		S141.164,211.414,141.164,213.562z"/>
	<path fill="#E06994" d="M123.018,212.239c-0.784,2.222-1.257,4.267-2.808,4.267s-2.808-1.91-2.808-4.267s1.257-4.267,2.808-4.267
		S123.99,209.485,123.018,212.239z"/>
	<path fill="#E06994" d="M135.439,201.789c0,1.969-1.271,3.014-2.592,3.564c-2.592,1.08-2.592-1.596-2.592-3.564
		s1.161-3.564,2.592-3.564C134.278,198.225,135.439,199.82,135.439,201.789z"/>
	<path fill="#E06994" d="M134.791,189.367c0,1.551-1.846,2.16-3.456,2.16c-1.611,0-2.917-0.539-2.917-2.808
		c0-1.551,1.322-2.58,2.917-2.808C133.603,185.588,134.791,187.816,134.791,189.367z"/>
	<path fill="#E06994" d="M116.97,202.761c0,1.192-0.75,2.16-1.674,2.16c-0.925,0-2.539-0.216-1.674-2.16
		c0.484-1.09,0.75-2.16,1.674-2.16C116.22,200.601,116.97,201.568,116.97,202.761z"/>
	<ellipse fill="#E06994" cx="146.888" cy="207.945" rx="2.484" ry="3.24"/>
	<ellipse fill="#E06994" cx="128.365" cy="215.344" rx="2.646" ry="3.187"/>
</g>
<g>
	<path fill="#003800" d="M700.843,145.274c-3.977,56.865-8.072,103.324-25.097,101.71c-23.838-2.26-14.674-47.35-10.697-104.212
		c3.976-56.864-0.226-109.226,25.096-101.71C714.397,48.259,704.818,88.411,700.843,145.274z"/>
	<path fill="#096B09" d="M697.939,144.437c-2.129,24.393-5.48,96.522-20.455,98.86c-23.656,3.695-13.35-44.451-9.373-101.314
		c3.976-56.864-0.362-102.597,25.59-93.636C702.438,51.365,702.797,88.766,697.939,144.437z"/>
	<path fill="#21C121" d="M670.597,145.769c-3.47,49.614-9.702,86.563-2.202,90.122c2.041,0.969,2.967-40.301,6.436-89.917
		c3.469-49.617,12.268-91.607,6.129-89.758C672.545,58.75,674.066,96.152,670.597,145.769z"/>
	<path fill="#21C121" d="M694.441,145.656c3.469-49.615,5.689-85.9-1.115-90.655c-3.328-2.327-1.182,40.488-4.652,90.104
		c-3.469,49.617-14.316,89.279-7.912,89.572C689.89,235.092,690.972,195.271,694.441,145.656z"/>
	<path fill="#21C121" d="M675.697,173.191c-3.471,49.613-7.303,57.934,0.197,61.49c2.043,0.967-0.393-12.307,6.82-61.674
		c7.188-49.217,6.812-109.66,5.557-118.904C687.088,45.398,679.166,123.575,675.697,173.191z"/>
</g>
<g>
	<path fill="#003800" d="M682.284,115.297c24.132-2.609,43.897-4.191,44.225,7.02c0.458,15.698-19.031,13.861-43.162,16.47
		c-24.132,2.609-45.888,10.123-44.225-7.021C640.714,115.349,658.153,117.907,682.284,115.297z"/>
	<path fill="#096B09" d="M682.104,117.261c10.377-0.844,40.885-5.254,42.753,4.264c2.949,15.036-17.892,12.735-42.023,15.344
		c-24.131,2.61-43.094,9.606-40.86-8.078C642.726,122.838,658.422,119.188,682.104,117.261z"/>
	<path fill="#21C121" d="M684.278,134.908c21.055-2.276,36.95-1.601,38.003-6.8c0.286-1.416-17.111,1.753-38.166,4.03
		c-21.057,2.277-39.222,0.395-38.082,4.215C647.595,141.589,663.223,137.185,684.278,134.908z"/>
	<path fill="#21C121" d="M682.822,119.423c-21.055,2.277-36.435,4.148-38.03,9.004c-0.782,2.376,17.084-2.93,38.14-5.207
		c21.056-2.277,38.363,1.15,38.108-3.039C720.676,114.212,703.879,117.146,682.822,119.423z"/>
	<path fill="#21C121" d="M695.501,129.09c21.055-2.276,24.777-0.547,25.829-5.746c0.286-1.415-5.148,1.379-26.321,1.202
		c-21.107-0.177-46.485,5.587-50.295,7.249C641.125,133.358,674.445,131.367,695.501,129.09z"/>
</g>
<g>
	<path fill="#003800" d="M711.284,41.297c24.132-2.608,36.897-4.191,37.225,7.021c0.458,15.698-12.031,13.861-36.162,16.47
		c-24.132,2.609-45.888,10.123-44.225-7.02C669.714,41.35,687.153,43.906,711.284,41.297z"/>
	<path fill="#096B09" d="M711.104,43.261c10.377-0.845,33.885-5.255,35.753,4.265c2.949,15.035-10.892,12.734-35.023,15.344
		c-24.131,2.609-43.094,9.606-40.86-8.078C671.726,48.838,687.422,45.188,711.104,43.261z"/>
	<path fill="#21C121" d="M713.278,60.908c21.055-2.276,29.95-1.602,31.003-6.8c0.286-1.415-10.111,1.753-31.166,4.03
		c-21.057,2.277-39.222,0.395-38.082,4.215C676.595,67.59,692.223,63.186,713.278,60.908z"/>
	<path fill="#21C121" d="M711.822,45.423c-21.055,2.276-36.435,4.148-38.03,9.005c-0.782,2.375,17.084-2.93,38.14-5.207
		s31.363,1.15,31.108-3.039C742.676,40.213,732.879,43.146,711.822,45.423z"/>
	<path fill="#21C121" d="M724.501,55.09c21.055-2.276,17.777-0.547,18.829-5.746c0.286-1.414,1.852,1.379-19.321,1.202
		c-21.107-0.177-46.485,5.587-50.295,7.249C679.397,55.315,714.316,56.191,724.501,55.09z"/>
</g>
<g>
	<path fill="#003800" d="M763.795,181.016c-1.642,40.254-3.824,73.109-20.818,71.27c-23.793-2.575-16.516-34.25-14.873-74.502
		c1.643-40.255-4.664-77.642,20.818-71.271C773.329,112.613,765.438,140.762,763.795,181.016z"/>
	<path fill="#096B09" d="M760.874,180.303c-1.125,17.251-1.524,68.378-16.319,69.433c-23.371,1.665-15.08-32.135-13.438-72.39
		c1.643-40.254-4.531-72.935,21.637-65.51C761.564,114.335,763.44,140.933,760.874,180.303z"/>
	<path fill="#21C121" d="M733.742,180.138c-1.433,35.122-6.127,61.132,1.474,63.964c2.069,0.771,1.312-28.522,2.744-63.646
		c1.433-35.123,8.473-64.609,2.444-63.545C732.143,118.369,735.176,145.014,733.742,180.138z"/>
	<path fill="#21C121" d="M757.446,181.026c1.433-35.122,2.164-60.821-4.794-64.478c-3.405-1.79,0.47,28.729-0.962,63.852
		c-1.433,35.123-10.606,62.872-4.228,63.341C756.556,244.408,756.014,216.15,757.446,181.026z"/>
	<path fill="#21C121" d="M739.928,199.835c-1.434,35.123-4.904,40.879,2.697,43.712c2.069,0.771-0.891-8.763,4.272-43.557
		c5.147-34.688,2.317-77.663,0.692-84.284C746.061,109.471,741.359,164.712,739.928,199.835z"/>
</g>
<g>
	<path fill="#003800" d="M768.795,81.37c-1.642,12.971-3.824,23.558-20.818,22.965c-23.793-0.83-16.516-11.036-14.873-24.007
		s-4.664-25.019,20.818-22.965C778.329,59.329,770.438,68.399,768.795,81.37z"/>
	<path fill="#096B09" d="M765.874,81.141c-1.125,5.559-1.524,22.033-16.319,22.373c-23.371,0.536-15.08-10.354-13.438-23.326
		c1.643-12.971-4.531-23.502,21.637-21.109C766.564,59.884,768.44,68.454,765.874,81.141z"/>
	<path fill="#21C121" d="M738.742,81.087c-1.433,11.317-6.127,19.698,1.474,20.611c2.069,0.248,1.312-9.19,2.744-20.509
		c1.433-11.317,8.473-20.819,2.444-20.477C737.143,61.184,740.176,69.77,738.742,81.087z"/>
	<path fill="#21C121" d="M762.446,81.373c1.433-11.317,2.164-19.598-4.794-20.776c-3.405-0.576,0.47,9.258-0.962,20.575
		c-1.433,11.317-10.606,20.259-4.228,20.41C761.556,101.797,761.014,92.691,762.446,81.373z"/>
	<path fill="#21C121" d="M744.928,87.435c-1.434,11.317-4.904,13.172,2.697,14.085c2.069,0.248-0.891-2.824,4.272-14.035
		c5.147-11.178,2.317-25.025,0.692-27.159C751.061,58.316,746.359,76.116,744.928,87.435z"/>
</g>
<path fill="#F9ED12" stroke="#534741" stroke-width="3" stroke-miterlimit="10" d="M393.918,211.46c0,0,0.602-7.745,0.939-18.923
	c-0.413,0.076-0.834,0.125-1.267,0.125c-4.286,0-7.76-3.865-7.76-8.634s3.474-8.634,7.76-8.634c0.506,0,1,0.058,1.479,0.161
	c-0.028-4.425-0.127-9.009-0.33-13.6c-0.947,0.348-1.957,0.542-3.008,0.542c-5.312,0-9.618-4.795-9.618-10.711
	c0-5.915,4.306-10.71,9.618-10.71c0.411,0,0.813,0.038,1.21,0.094c-0.226-1.602-0.476-3.163-0.747-4.689
	c-0.045,0-0.09,0.005-0.136,0.005c-3.319,0-6.011-2.202-6.011-4.918c0-2.126,1.652-3.932,3.961-4.619
	c-2.171-7.354-5.208-12.775-9.426-14.726c-0.943-0.436-2.069-0.844-3.337-1.168c0.725,1.545,1.151,3.365,1.151,5.322
	c0,5.553-3.376,10.054-7.541,10.054s-7.541-4.501-7.541-10.054c0-1.762,0.342-3.417,0.939-4.856
	c-5.909,1.884-12.465,6.333-18.644,15.348c-1.232,1.798-2.857,4.408-4.658,7.413c1.323-1.725,3.31-2.823,5.533-2.823
	c3.983,0,7.213,3.523,7.213,7.869c0,4.346-3.229,7.869-7.213,7.869c-3.984,0-7.213-3.523-7.213-7.869
	c0-1.261,0.279-2.448,0.762-3.504c-6.921,11.671-15.844,27.985-15.844,27.985l-0.134-6.501c-1.073,1.58-2.574,2.566-4.238,2.566
	c-3.259,0-5.902-3.768-5.902-8.415c0-4.648,2.643-8.416,5.902-8.416c1.541,0,2.939,0.849,3.991,2.229l-0.275-13.376
	c0,0,5.027-6.121,4.59-11.585c-0.223-2.786-1.79-5.181-4.023-7.18c-1.148,2.829-3.513,4.775-6.25,4.775
	c-3.863,0-6.995-3.866-6.995-8.634c0-0.898,0.112-1.765,0.318-2.58c-1.51-0.402-2.897-0.674-4.034-0.809
	c-3.842-0.454-11.803,0.438-12.459,9.181l0.102,9.225c1.025-0.417,2.147-0.651,3.325-0.651c4.826,0,8.738,3.865,8.738,8.633
	c0,4.769-3.912,8.635-8.738,8.635c-1.111,0-2.17-0.213-3.148-0.587l0.715,64.955c1.245-1.19,2.791-1.904,4.472-1.904
	c4.104,0,7.432,4.208,7.432,9.399c0,5.19-3.327,9.398-7.432,9.398c-1.606,0-3.089-0.651-4.305-1.746l0.151,13.768
	c0,5.786,5.144,11.113,13.596,13.062c-0.027-0.307-0.044-0.616-0.044-0.93c0-5.372,4.061-9.727,9.071-9.727
	c3.443,0,6.439,2.058,7.975,5.089c4.807-8.547,2.845-21.92,2.845-21.92s2.497-7.225,6.036-16.794
	c-4.798-0.911-8.44-5.322-8.44-10.638c0-5.976,4.6-10.819,10.273-10.819c2.119,0,4.087,0.677,5.723,1.834
	c5.863-14.514,11.974-27.682,14.605-26.971c1.572,0.425,2.697,3.376,3.491,7.845c1.304-2.579,3.946-4.348,7-4.348
	c4.346,0,7.869,3.572,7.869,7.979c0,4.405-3.523,7.978-7.869,7.978c-2.381,0-4.51-1.076-5.953-2.771
	c0.447,5.753,0.636,12.426,0.676,19.089c1.318-2.077,3.384-3.422,5.714-3.422c3.983,0,7.213,3.914,7.213,8.743
	s-3.229,8.743-7.213,8.743c-2.359,0-4.447-1.379-5.763-3.501c-0.174,12.291-0.689,22.66-0.78,24.428
	c1.262-1.699,3.185-2.785,5.341-2.785c3.803,0,6.885,3.376,6.885,7.541c0,1.004-0.183,1.961-0.508,2.837
	c2.412,0.13,5.309-0.007,8.814-0.542c15.737-2.404,15.082-7.289,15.956-12.24C399.165,218.235,393.918,211.46,393.918,211.46z
	 M304.083,179.547c0-4.346,4.012-7.869,8.961-7.869c4.95,0,8.962,3.523,8.962,7.869s-4.012,7.869-8.962,7.869
	C308.095,187.416,304.083,183.893,304.083,179.547z M321.351,221.515c-2.535,0-4.59-2.3-4.59-5.137s2.055-5.137,4.59-5.137
	c2.535,0,4.59,2.3,4.59,5.137S323.885,221.515,321.351,221.515z M337.197,172.989c-2.958,0-5.355-2.74-5.355-6.12
	s2.397-6.12,5.355-6.12c2.958,0,5.355,2.74,5.355,6.12S340.155,172.989,337.197,172.989z M368.673,142.826
	c-1.509,0-2.732-1.419-2.732-3.169s1.223-3.169,2.732-3.169c1.509,0,2.732,1.419,2.732,3.169S370.182,142.826,368.673,142.826z
	 M385.176,224.138c-2.897,0-5.246-2.936-5.246-6.558s2.349-6.558,5.246-6.558c2.897,0,5.246,2.936,5.246,6.558
	S388.073,224.138,385.176,224.138z"/>
<path fill="#F7732B" stroke="#F78654" stroke-width="3" stroke-miterlimit="10" d="M485.5,71"/>
<path fill="#F7732B" stroke="#F7931E" stroke-width="3" stroke-miterlimit="10" d="M503.5,220.5c-1.309-3.346-4.537-2.679-6.5-9.5
	c-5.73-19.915-0.411-66.891-9-87c-8.329-19.502-24.128-16.92-41-15.5c-12.106,1.019-38.727,17.417-40.55,30.177
	c-0.895,6.262,13.854,23.759,13.854,23.759s16.612-12.777,17.459-19.673c0.576-4.693,9.9-7.179,13.647-7.992
	c6.131-1.33,9.089-0.271,9.089-0.271s3.724,11.509,0.182,14.507c-5.154,4.362-34.848,18.251-45.116,28.407
	c-5.842,5.778-14.982,13.439-13.368,31.445c2.738,30.544,34.829,45.79,34.829,45.79s18.712-15.071,26.065-26.188
	c6.276-9.49,6.097-22.943,6.097-22.943s2.667,24.21,8.312,28.982c3.448,2.916,12.641,12.28,12.641,12.28
	S507.622,231.038,503.5,220.5z M448.073,213.872c-1.926,2.74-8.962,6.532-12.76,4.253c-3.423-2.054-7.443-8.355-5.621-17.773
	c1.237-6.391,8.946-14.747,16.862-19.748c7.916-5,16.039-6.646,16.039-6.646S453.52,206.124,448.073,213.872z"/>
<g>
	<g>
		<path fill="#F7931E" d="M442.464,117.58c4.325,0,8.65,0,12.976,0c0.839,0,12.409-0.335,12.176,0.713
			c0.579-0.192,1.158-0.384,1.737-0.576c-2.438-1.246-3.409,0.273-4.803,2.176c0.598-0.123,1.195-0.247,1.793-0.37
			c-1.836-2.32-3.838-3.836-5.968-1.103c-0.605,0.777-2.482-1.61-3.65-1.395c-1.955,0.359-2.791,1.246-4.369,2.525
			c0.555-0.081,1.11-0.162,1.665-0.243c-0.785-0.887-1.519-1.778-2.378-2.595c-0.412-0.392-1.501-0.031-1.793,0.37
			c-0.612,0.804-1.189,1.632-1.729,2.486c0.598-0.123,1.195-0.247,1.793-0.37c-1.093-0.875-2.427-2.178-3.998-1.958
			c-1.738,0.245-0.862,1.361-1.947-0.312c-0.429,0.289-0.858,0.578-1.288,0.867c0.966-0.014,9.676,1.479,10.305,0.692
			c0.595-0.004,1.19-0.008,1.785-0.012c2.301-3.154,3.139-0.461,4.368,0.479c0.335,0.256,0.916,0.137,1.269-0.018
			c1.293-0.567,2.853-2.498,4.461-0.307c0.353,0.48,2.219-0.159,1.801-0.729c-1.149-1.566-6.071-2.037-6.968,0.143
			c0.523-1.271-0.907-2.466-2.653-2.221c-1.847,0.26-2.99,1.195-4.062,2.664c-0.494,0.678,1.444,0.413,1.785-0.012
			c0.144-0.18,0.288-0.36,0.433-0.541c0.292-0.366-0.249-0.488-0.505-0.497c-3.769-0.128-7.469-0.702-11.242-0.648
			c-0.335,0.005-1.657,0.298-1.288,0.867c0.795,1.227,1.23,1.511,2.553,1.337c1.55-0.204,1.778-0.359,3.393,0.933
			c0.434,0.347,1.499,0.072,1.793-0.37c0.54-0.854,1.116-1.683,1.729-2.486c-0.598,0.123-1.195,0.247-1.793,0.37
			c0.858,0.816,1.592,1.708,2.378,2.595c0.355,0.401,1.344,0.018,1.665-0.243c2.802-2.271,2.898,0.181,5.55,0.165
			c2.636-0.017,2.558-2.929,5.107,0.293c0.35,0.442,1.533-0.016,1.793-0.37c0.465-0.636,0.678-1.686,1.467-1.283
			c0.418,0.213,1.618-0.041,1.737-0.576c0.072-0.324,0.145-0.648,0.217-0.973c0.051-0.228-0.176-0.323-0.36-0.353
			c-3.709-0.589-7.568-0.124-11.313-0.124c-4.948,0-9.896,0-14.843,0C442.577,116.574,441.162,117.58,442.464,117.58L442.464,117.58
			z"/>
	</g>
</g>
<g>
	<g>
		<path fill="#F7931E" d="M415.464,127.58c4.325,0,8.65,0,12.976,0c0.839,0,12.409-0.335,12.176,0.713
			c0.579-0.192,1.158-0.384,1.737-0.576c-2.438-1.246-3.409,0.273-4.803,2.176c0.598-0.123,1.195-0.247,1.793-0.37
			c-1.836-2.32-3.838-3.836-5.968-1.103c-0.605,0.777-2.482-1.61-3.65-1.395c-1.955,0.359-2.791,1.246-4.369,2.525
			c0.555-0.081,1.11-0.162,1.665-0.243c-0.785-0.887-1.519-1.778-2.378-2.595c-0.412-0.392-1.501-0.031-1.793,0.37
			c-0.612,0.804-1.189,1.632-1.729,2.486c0.598-0.123,1.195-0.247,1.793-0.37c-1.093-0.875-2.427-2.178-3.998-1.958
			c-1.738,0.245-0.862,1.361-1.947-0.312c-0.429,0.289-0.858,0.578-1.288,0.867c0.966-0.014,9.676,1.479,10.305,0.692
			c0.595-0.004,1.19-0.008,1.785-0.012c2.301-3.154,3.139-0.461,4.368,0.479c0.335,0.256,0.916,0.137,1.269-0.018
			c1.293-0.567,2.853-2.498,4.461-0.307c0.353,0.48,2.219-0.159,1.801-0.729c-1.149-1.566-6.071-2.037-6.968,0.143
			c0.523-1.271-0.907-2.466-2.653-2.221c-1.847,0.26-2.99,1.195-4.062,2.664c-0.494,0.678,1.444,0.413,1.785-0.012
			c0.144-0.18,0.288-0.36,0.433-0.541c0.292-0.366-0.249-0.488-0.505-0.497c-3.769-0.128-7.469-0.702-11.242-0.648
			c-0.335,0.005-1.657,0.298-1.288,0.867c0.795,1.227,1.23,1.511,2.553,1.337c1.55-0.204,1.778-0.359,3.393,0.933
			c0.434,0.347,1.499,0.072,1.793-0.37c0.54-0.854,1.116-1.683,1.729-2.486c-0.598,0.123-1.195,0.247-1.793,0.37
			c0.858,0.816,1.592,1.708,2.378,2.595c0.355,0.401,1.344,0.018,1.665-0.243c2.802-2.271,2.898,0.181,5.55,0.165
			c2.636-0.017,2.558-2.929,5.107,0.293c0.35,0.442,1.533-0.016,1.793-0.37c0.465-0.636,0.678-1.686,1.467-1.283
			c0.418,0.213,1.618-0.041,1.737-0.576c0.072-0.324,0.145-0.648,0.217-0.973c0.051-0.228-0.176-0.323-0.36-0.353
			c-3.709-0.589-7.568-0.124-11.313-0.124c-4.948,0-9.896,0-14.843,0C415.577,126.574,414.162,127.58,415.464,127.58L415.464,127.58
			z"/>
	</g>
</g>
<g>
	<g>
		<path fill="#F7931E" d="M465.464,134.58c4.325,0,8.65,0,12.976,0c0.839,0,12.409-0.335,12.176,0.713
			c0.579-0.192,1.158-0.384,1.737-0.576c-2.438-1.246-3.409,0.273-4.803,2.176c0.598-0.123,1.195-0.247,1.793-0.37
			c-1.836-2.32-3.838-3.836-5.968-1.103c-0.605,0.777-2.482-1.61-3.65-1.395c-1.955,0.359-2.791,1.246-4.369,2.525
			c0.555-0.081,1.11-0.162,1.665-0.243c-0.785-0.887-1.519-1.778-2.378-2.595c-0.412-0.392-1.501-0.031-1.793,0.37
			c-0.612,0.804-1.189,1.632-1.729,2.486c0.598-0.123,1.195-0.247,1.793-0.37c-1.093-0.875-2.427-2.178-3.998-1.958
			c-1.738,0.245-0.862,1.361-1.947-0.312c-0.429,0.289-0.858,0.578-1.288,0.867c0.966-0.014,9.676,1.479,10.305,0.692
			c0.595-0.004,1.19-0.008,1.785-0.012c2.301-3.154,3.139-0.461,4.368,0.479c0.335,0.256,0.916,0.137,1.269-0.018
			c1.293-0.567,2.853-2.498,4.461-0.307c0.353,0.48,2.219-0.159,1.801-0.729c-1.149-1.566-6.071-2.037-6.968,0.143
			c0.523-1.271-0.907-2.466-2.653-2.221c-1.847,0.26-2.99,1.195-4.062,2.664c-0.494,0.678,1.444,0.413,1.785-0.012
			c0.144-0.18,0.288-0.36,0.433-0.541c0.292-0.366-0.249-0.488-0.505-0.497c-3.769-0.128-7.469-0.702-11.242-0.648
			c-0.335,0.005-1.657,0.298-1.288,0.867c0.795,1.227,1.23,1.511,2.553,1.337c1.55-0.204,1.778-0.359,3.393,0.933
			c0.434,0.347,1.499,0.072,1.793-0.37c0.54-0.854,1.116-1.683,1.729-2.486c-0.598,0.123-1.195,0.247-1.793,0.37
			c0.858,0.816,1.592,1.708,2.378,2.595c0.355,0.401,1.344,0.018,1.665-0.243c2.802-2.271,2.898,0.181,5.55,0.165
			c2.636-0.017,2.558-2.929,5.107,0.293c0.35,0.442,1.533-0.016,1.793-0.37c0.465-0.636,0.678-1.686,1.467-1.283
			c0.418,0.213,1.618-0.041,1.737-0.576c0.072-0.324,0.145-0.648,0.217-0.973c0.051-0.228-0.176-0.323-0.36-0.353
			c-3.709-0.589-7.568-0.124-11.313-0.124c-4.948,0-9.896,0-14.843,0C465.577,133.574,464.162,134.58,465.464,134.58L465.464,134.58
			z"/>
	</g>
</g>
<g>
	<g>
		<path fill="#F7931E" d="M411.464,139.58c4.325,0,8.65,0,12.976,0c0.839,0,12.409-0.335,12.176,0.713
			c0.579-0.192,1.158-0.384,1.737-0.576c-2.438-1.246-3.409,0.273-4.803,2.176c0.598-0.123,1.195-0.247,1.793-0.37
			c-1.836-2.32-3.838-3.836-5.968-1.103c-0.605,0.777-2.482-1.61-3.65-1.395c-1.955,0.359-2.791,1.246-4.369,2.525
			c0.555-0.081,1.11-0.162,1.665-0.243c-0.785-0.887-1.519-1.778-2.378-2.595c-0.412-0.392-1.501-0.031-1.793,0.37
			c-0.612,0.804-1.189,1.632-1.729,2.486c0.598-0.123,1.195-0.247,1.793-0.37c-1.093-0.875-2.427-2.178-3.998-1.958
			c-1.738,0.245-0.862,1.361-1.947-0.312c-0.429,0.289-0.858,0.578-1.288,0.867c0.966-0.014,9.676,1.479,10.305,0.692
			c0.595-0.004,1.19-0.008,1.785-0.012c2.301-3.154,3.139-0.461,4.368,0.479c0.335,0.256,0.916,0.137,1.269-0.018
			c1.293-0.567,2.853-2.498,4.461-0.307c0.353,0.48,2.219-0.159,1.801-0.729c-1.149-1.566-6.071-2.037-6.968,0.143
			c0.523-1.271-0.907-2.466-2.653-2.221c-1.847,0.26-2.99,1.195-4.062,2.664c-0.494,0.678,1.444,0.413,1.785-0.012
			c0.144-0.18,0.288-0.36,0.433-0.541c0.292-0.366-0.249-0.488-0.505-0.497c-3.769-0.128-7.469-0.702-11.242-0.648
			c-0.335,0.005-1.657,0.298-1.288,0.867c0.795,1.227,1.23,1.511,2.553,1.337c1.55-0.204,1.778-0.359,3.393,0.933
			c0.434,0.347,1.499,0.072,1.793-0.37c0.54-0.854,1.116-1.683,1.729-2.486c-0.598,0.123-1.195,0.247-1.793,0.37
			c0.858,0.816,1.592,1.708,2.378,2.595c0.355,0.401,1.344,0.018,1.665-0.243c2.802-2.271,2.898,0.181,5.55,0.165
			c2.636-0.017,2.558-2.929,5.107,0.293c0.35,0.442,1.533-0.016,1.793-0.37c0.465-0.636,0.678-1.686,1.467-1.283
			c0.418,0.213,1.618-0.041,1.737-0.576c0.072-0.324,0.145-0.648,0.217-0.973c0.051-0.228-0.176-0.323-0.36-0.353
			c-3.709-0.589-7.568-0.124-11.313-0.124c-4.948,0-9.896,0-14.843,0C411.577,138.574,410.162,139.58,411.464,139.58L411.464,139.58
			z"/>
	</g>
</g>
<g>
	<g>
		<path fill="#F7931E" d="M454.464,152.579c4.325,0,8.65,0,12.976,0c0.839,0,12.409-0.336,12.176,0.714
			c0.579-0.191,1.158-0.384,1.737-0.576c-2.438-1.246-3.408,0.272-4.803,2.176c0.598-0.123,1.195-0.247,1.793-0.37
			c-1.836-2.319-3.838-3.837-5.968-1.103c-0.605,0.776-2.482-1.608-3.65-1.395c-1.955,0.358-2.791,1.245-4.369,2.524
			c0.555-0.08,1.11-0.161,1.665-0.242c-0.785-0.887-1.519-1.778-2.378-2.596c-0.411-0.392-1.501-0.031-1.793,0.37
			c-0.612,0.804-1.188,1.633-1.729,2.486c0.598-0.123,1.195-0.247,1.793-0.37c-1.093-0.875-2.427-2.178-3.998-1.957
			c-1.738,0.244-0.862,1.361-1.947-0.312c-0.429,0.289-0.858,0.578-1.288,0.867c0.964-0.014,9.678,1.478,10.305,0.692
			c0.595-0.004,1.19-0.008,1.785-0.012c2.3-3.154,3.139-0.462,4.368,0.478c0.336,0.257,0.916,0.137,1.269-0.018
			c1.294-0.565,2.852-2.498,4.461-0.307c0.353,0.48,2.22-0.159,1.801-0.729c-1.15-1.565-6.07-2.035-6.968,0.144
			c0.523-1.271-0.907-2.466-2.653-2.221c-1.848,0.26-2.99,1.195-4.062,2.664c-0.494,0.678,1.444,0.414,1.785-0.012
			c0.144-0.181,0.288-0.36,0.433-0.541c0.292-0.365-0.249-0.488-0.505-0.497c-3.769-0.129-7.469-0.702-11.242-0.648
			c-0.335,0.005-1.657,0.299-1.288,0.867c0.795,1.228,1.231,1.511,2.553,1.337c1.55-0.203,1.778-0.359,3.393,0.933
			c0.434,0.347,1.499,0.072,1.793-0.37c0.54-0.854,1.116-1.683,1.729-2.486c-0.598,0.123-1.195,0.247-1.793,0.37
			c0.858,0.817,1.592,1.709,2.378,2.596c0.355,0.401,1.344,0.019,1.665-0.242c2.802-2.272,2.898,0.181,5.55,0.164
			c2.637-0.017,2.557-2.929,5.107,0.293c0.35,0.442,1.533-0.016,1.793-0.37c0.466-0.637,0.678-1.685,1.467-1.281
			c0.418,0.213,1.618-0.041,1.737-0.576c0.072-0.324,0.145-0.648,0.217-0.973c0.051-0.229-0.176-0.323-0.36-0.353
			c-3.709-0.591-7.568-0.125-11.313-0.125c-4.948,0-9.896,0-14.843,0C454.577,151.573,453.162,152.579,454.464,152.579
			L454.464,152.579z"/>
	</g>
</g>
<g>
	<g>
		<path fill="#F7931E" d="M467.464,167.579c4.325,0,8.65,0,12.976,0c0.839,0,12.409-0.336,12.176,0.714
			c0.579-0.191,1.158-0.384,1.737-0.576c-2.438-1.246-3.408,0.272-4.803,2.176c0.598-0.123,1.195-0.247,1.793-0.37
			c-1.836-2.319-3.838-3.837-5.968-1.103c-0.605,0.776-2.482-1.608-3.65-1.395c-1.955,0.358-2.791,1.245-4.369,2.524
			c0.555-0.08,1.11-0.161,1.665-0.242c-0.785-0.887-1.519-1.778-2.378-2.596c-0.411-0.392-1.501-0.031-1.793,0.37
			c-0.612,0.804-1.188,1.633-1.729,2.486c0.598-0.123,1.195-0.247,1.793-0.37c-1.093-0.875-2.427-2.178-3.998-1.957
			c-1.738,0.244-0.862,1.361-1.947-0.312c-0.429,0.289-0.858,0.578-1.288,0.867c0.964-0.014,9.678,1.478,10.305,0.692
			c0.595-0.004,1.19-0.008,1.785-0.012c2.3-3.154,3.139-0.462,4.368,0.478c0.336,0.257,0.916,0.137,1.269-0.018
			c1.294-0.565,2.852-2.498,4.461-0.307c0.353,0.48,2.22-0.159,1.801-0.729c-1.15-1.565-6.07-2.035-6.968,0.144
			c0.523-1.271-0.907-2.466-2.653-2.221c-1.848,0.26-2.99,1.195-4.062,2.664c-0.494,0.678,1.444,0.413,1.785-0.012
			c0.144-0.181,0.288-0.36,0.433-0.541c0.292-0.365-0.249-0.488-0.505-0.497c-3.769-0.129-7.469-0.702-11.242-0.648
			c-0.335,0.005-1.657,0.299-1.288,0.867c0.795,1.228,1.231,1.511,2.553,1.337c1.55-0.203,1.778-0.359,3.393,0.933
			c0.434,0.347,1.499,0.072,1.793-0.37c0.54-0.854,1.116-1.683,1.729-2.486c-0.598,0.123-1.195,0.247-1.793,0.37
			c0.858,0.817,1.592,1.709,2.378,2.596c0.355,0.401,1.344,0.019,1.665-0.242c2.802-2.272,2.898,0.181,5.55,0.164
			c2.637-0.017,2.557-2.929,5.107,0.293c0.35,0.442,1.533-0.016,1.793-0.37c0.466-0.637,0.678-1.685,1.467-1.281
			c0.418,0.213,1.618-0.041,1.737-0.576c0.072-0.324,0.145-0.648,0.217-0.973c0.051-0.229-0.176-0.323-0.36-0.353
			c-3.709-0.591-7.568-0.125-11.313-0.125c-4.948,0-9.896,0-14.843,0C467.577,166.573,466.162,167.579,467.464,167.579
			L467.464,167.579z"/>
	</g>
</g>
<g>
	<g>
		<path fill="#F7931E" d="M433.464,165.579c4.325,0,8.65,0,12.976,0c0.839,0,12.409-0.336,12.176,0.714
			c0.579-0.191,1.158-0.384,1.737-0.576c-2.438-1.246-3.408,0.272-4.803,2.176c0.598-0.123,1.195-0.247,1.793-0.37
			c-1.836-2.319-3.838-3.837-5.968-1.103c-0.605,0.776-2.482-1.608-3.65-1.395c-1.955,0.358-2.791,1.245-4.369,2.524
			c0.555-0.08,1.11-0.161,1.665-0.242c-0.785-0.887-1.519-1.778-2.378-2.596c-0.411-0.392-1.501-0.031-1.793,0.37
			c-0.612,0.804-1.188,1.633-1.729,2.486c0.598-0.123,1.195-0.247,1.793-0.37c-1.093-0.875-2.427-2.178-3.998-1.957
			c-1.738,0.244-0.862,1.361-1.947-0.312c-0.429,0.289-0.858,0.578-1.288,0.867c0.964-0.014,9.678,1.478,10.305,0.692
			c0.595-0.004,1.19-0.008,1.785-0.012c2.3-3.154,3.139-0.462,4.368,0.478c0.336,0.257,0.916,0.137,1.269-0.018
			c1.294-0.565,2.852-2.498,4.461-0.307c0.353,0.48,2.22-0.159,1.801-0.729c-1.15-1.565-6.07-2.035-6.968,0.144
			c0.523-1.271-0.907-2.466-2.653-2.221c-1.848,0.26-2.99,1.195-4.062,2.664c-0.494,0.678,1.444,0.413,1.785-0.012
			c0.144-0.181,0.288-0.36,0.433-0.541c0.292-0.365-0.249-0.488-0.505-0.497c-3.769-0.129-7.469-0.702-11.242-0.648
			c-0.335,0.005-1.657,0.299-1.288,0.867c0.795,1.228,1.231,1.511,2.553,1.337c1.55-0.203,1.778-0.359,3.393,0.933
			c0.434,0.347,1.499,0.072,1.793-0.37c0.54-0.854,1.116-1.683,1.729-2.486c-0.598,0.123-1.195,0.247-1.793,0.37
			c0.858,0.817,1.592,1.709,2.378,2.596c0.355,0.401,1.344,0.019,1.665-0.242c2.802-2.272,2.898,0.181,5.55,0.164
			c2.637-0.017,2.557-2.929,5.107,0.293c0.35,0.442,1.533-0.016,1.793-0.37c0.466-0.637,0.678-1.685,1.467-1.281
			c0.418,0.213,1.618-0.041,1.737-0.576c0.072-0.324,0.145-0.648,0.217-0.973c0.051-0.229-0.176-0.323-0.36-0.353
			c-3.709-0.591-7.568-0.125-11.313-0.125c-4.948,0-9.896,0-14.843,0C433.577,164.573,432.162,165.579,433.464,165.579
			L433.464,165.579z"/>
	</g>
</g>
<g>
	<g>
		<path fill="#F7931E" d="M420.464,179.579c4.325,0,8.65,0,12.976,0c0.839,0,12.409-0.336,12.176,0.714
			c0.579-0.191,1.158-0.384,1.737-0.576c-2.438-1.246-3.408,0.272-4.803,2.176c0.598-0.123,1.195-0.247,1.793-0.37
			c-1.836-2.319-3.838-3.837-5.968-1.103c-0.605,0.776-2.482-1.608-3.65-1.395c-1.955,0.358-2.791,1.245-4.369,2.524
			c0.555-0.08,1.11-0.161,1.665-0.242c-0.785-0.887-1.519-1.778-2.378-2.596c-0.411-0.392-1.501-0.031-1.793,0.37
			c-0.612,0.804-1.188,1.633-1.729,2.486c0.598-0.123,1.195-0.247,1.793-0.37c-1.093-0.875-2.427-2.178-3.998-1.957
			c-1.738,0.244-0.862,1.361-1.947-0.312c-0.429,0.289-0.858,0.578-1.288,0.867c0.964-0.014,9.678,1.478,10.305,0.692
			c0.595-0.004,1.19-0.008,1.785-0.012c2.3-3.154,3.139-0.462,4.368,0.478c0.336,0.257,0.916,0.137,1.269-0.018
			c1.294-0.565,2.852-2.498,4.461-0.307c0.353,0.48,2.22-0.159,1.801-0.729c-1.15-1.565-6.07-2.035-6.968,0.144
			c0.523-1.271-0.907-2.466-2.653-2.221c-1.848,0.26-2.99,1.195-4.062,2.664c-0.494,0.678,1.444,0.413,1.785-0.012
			c0.144-0.181,0.288-0.36,0.433-0.541c0.292-0.365-0.249-0.488-0.505-0.497c-3.769-0.129-7.469-0.702-11.242-0.648
			c-0.335,0.005-1.657,0.299-1.288,0.867c0.795,1.228,1.231,1.511,2.553,1.337c1.55-0.203,1.778-0.359,3.393,0.933
			c0.434,0.347,1.499,0.072,1.793-0.37c0.54-0.854,1.116-1.683,1.729-2.486c-0.598,0.123-1.195,0.247-1.793,0.37
			c0.858,0.817,1.592,1.709,2.378,2.596c0.355,0.401,1.344,0.019,1.665-0.242c2.802-2.272,2.898,0.181,5.55,0.164
			c2.637-0.017,2.557-2.929,5.107,0.293c0.35,0.442,1.533-0.016,1.793-0.37c0.466-0.637,0.678-1.685,1.467-1.281
			c0.418,0.213,1.618-0.041,1.737-0.576c0.072-0.324,0.145-0.648,0.217-0.973c0.051-0.229-0.176-0.323-0.36-0.353
			c-3.709-0.591-7.568-0.125-11.313-0.125c-4.948,0-9.896,0-14.843,0C420.577,178.573,419.162,179.579,420.464,179.579
			L420.464,179.579z"/>
	</g>
</g>
<g>
	<g>
		<path fill="#F7931E" d="M404.464,193.579c4.325,0,8.65,0,12.976,0c0.839,0,12.409-0.336,12.176,0.714
			c0.579-0.191,1.158-0.384,1.737-0.576c-2.438-1.246-3.408,0.272-4.803,2.176c0.598-0.123,1.195-0.247,1.793-0.37
			c-1.836-2.319-3.838-3.837-5.968-1.103c-0.605,0.776-2.482-1.608-3.65-1.395c-1.955,0.358-2.791,1.245-4.369,2.524
			c0.555-0.08,1.11-0.161,1.665-0.242c-0.785-0.887-1.519-1.778-2.378-2.596c-0.411-0.392-1.501-0.031-1.793,0.37
			c-0.612,0.804-1.188,1.633-1.729,2.486c0.598-0.123,1.195-0.247,1.793-0.37c-1.093-0.875-2.427-2.178-3.998-1.957
			c-1.738,0.244-0.862,1.361-1.947-0.312c-0.429,0.289-0.858,0.578-1.288,0.867c0.964-0.014,9.678,1.478,10.305,0.692
			c0.595-0.004,1.19-0.008,1.785-0.012c2.3-3.154,3.139-0.462,4.368,0.478c0.336,0.257,0.916,0.137,1.269-0.018
			c1.294-0.565,2.852-2.498,4.461-0.307c0.353,0.48,2.22-0.159,1.801-0.729c-1.15-1.565-6.07-2.035-6.968,0.144
			c0.523-1.271-0.907-2.466-2.653-2.221c-1.848,0.26-2.99,1.195-4.062,2.664c-0.494,0.678,1.444,0.413,1.785-0.012
			c0.144-0.181,0.288-0.36,0.433-0.541c0.292-0.365-0.249-0.488-0.505-0.497c-3.769-0.129-7.469-0.702-11.242-0.648
			c-0.335,0.005-1.657,0.299-1.288,0.867c0.795,1.228,1.231,1.511,2.553,1.337c1.55-0.203,1.778-0.359,3.393,0.933
			c0.434,0.347,1.499,0.072,1.793-0.37c0.54-0.854,1.116-1.683,1.729-2.486c-0.598,0.123-1.195,0.247-1.793,0.37
			c0.858,0.817,1.592,1.709,2.378,2.596c0.355,0.401,1.344,0.019,1.665-0.242c2.802-2.272,2.898,0.181,5.55,0.164
			c2.637-0.017,2.557-2.929,5.107,0.293c0.35,0.442,1.533-0.016,1.793-0.37c0.466-0.637,0.678-1.685,1.467-1.281
			c0.418,0.213,1.618-0.041,1.737-0.576c0.072-0.324,0.145-0.648,0.217-0.973c0.051-0.229-0.176-0.323-0.36-0.353
			c-3.709-0.591-7.568-0.125-11.313-0.125c-4.948,0-9.896,0-14.843,0C404.577,192.573,403.162,193.579,404.464,193.579
			L404.464,193.579z"/>
	</g>
</g>
<g>
	<g>
		<path fill="#F7931E" d="M404.464,212.579c4.325,0,8.65,0,12.976,0c0.839,0,12.409-0.336,12.176,0.714
			c0.579-0.191,1.158-0.384,1.737-0.576c-2.438-1.246-3.408,0.272-4.803,2.176c0.598-0.123,1.195-0.247,1.793-0.37
			c-1.836-2.319-3.838-3.837-5.968-1.103c-0.605,0.776-2.482-1.608-3.65-1.395c-1.955,0.358-2.791,1.245-4.369,2.524
			c0.555-0.08,1.11-0.161,1.665-0.242c-0.785-0.887-1.519-1.778-2.378-2.596c-0.411-0.392-1.501-0.031-1.793,0.37
			c-0.612,0.804-1.188,1.633-1.729,2.486c0.598-0.123,1.195-0.247,1.793-0.37c-1.093-0.875-2.427-2.178-3.998-1.957
			c-1.738,0.244-0.862,1.361-1.947-0.312c-0.429,0.289-0.858,0.578-1.288,0.867c0.964-0.014,9.678,1.478,10.305,0.692
			c0.595-0.004,1.19-0.008,1.785-0.012c2.3-3.154,3.139-0.462,4.368,0.478c0.336,0.257,0.916,0.137,1.269-0.018
			c1.294-0.565,2.852-2.498,4.461-0.307c0.353,0.48,2.22-0.159,1.801-0.729c-1.15-1.565-6.07-2.035-6.968,0.144
			c0.523-1.271-0.907-2.466-2.653-2.221c-1.848,0.26-2.99,1.195-4.062,2.664c-0.494,0.678,1.444,0.413,1.785-0.012
			c0.144-0.181,0.288-0.36,0.433-0.541c0.292-0.365-0.249-0.488-0.505-0.497c-3.769-0.129-7.469-0.702-11.242-0.648
			c-0.335,0.005-1.657,0.299-1.288,0.867c0.795,1.228,1.231,1.511,2.553,1.337c1.55-0.203,1.778-0.359,3.393,0.933
			c0.434,0.347,1.499,0.072,1.793-0.37c0.54-0.854,1.116-1.683,1.729-2.486c-0.598,0.123-1.195,0.247-1.793,0.37
			c0.858,0.817,1.592,1.709,2.378,2.596c0.355,0.401,1.344,0.019,1.665-0.242c2.802-2.272,2.898,0.181,5.55,0.164
			c2.637-0.017,2.557-2.929,5.107,0.293c0.35,0.442,1.533-0.016,1.793-0.37c0.466-0.637,0.678-1.685,1.467-1.281
			c0.418,0.213,1.618-0.041,1.737-0.576c0.072-0.324,0.145-0.648,0.217-0.973c0.051-0.229-0.176-0.323-0.36-0.353
			c-3.709-0.591-7.568-0.125-11.313-0.125c-4.948,0-9.896,0-14.843,0C404.577,211.573,403.162,212.579,404.464,212.579
			L404.464,212.579z"/>
	</g>
</g>
<g>
	<g>
		<path fill="#F7931E" d="M409.464,231.579c4.325,0,8.65,0,12.976,0c0.839,0,12.409-0.336,12.176,0.714
			c0.579-0.191,1.158-0.384,1.737-0.576c-2.438-1.246-3.408,0.272-4.803,2.176c0.598-0.123,1.195-0.247,1.793-0.37
			c-1.836-2.319-3.838-3.837-5.968-1.103c-0.605,0.776-2.482-1.608-3.65-1.395c-1.955,0.358-2.791,1.245-4.369,2.524
			c0.555-0.08,1.11-0.161,1.665-0.242c-0.785-0.887-1.519-1.778-2.378-2.596c-0.411-0.392-1.501-0.031-1.793,0.37
			c-0.612,0.804-1.188,1.633-1.729,2.486c0.598-0.123,1.195-0.247,1.793-0.37c-1.093-0.875-2.427-2.178-3.998-1.957
			c-1.738,0.244-0.862,1.361-1.947-0.312c-0.429,0.289-0.858,0.578-1.288,0.867c0.964-0.014,9.678,1.478,10.305,0.692
			c0.595-0.004,1.19-0.008,1.785-0.012c2.3-3.154,3.139-0.462,4.368,0.478c0.336,0.257,0.916,0.137,1.269-0.018
			c1.294-0.565,2.852-2.498,4.461-0.307c0.353,0.48,2.22-0.159,1.801-0.729c-1.15-1.565-6.07-2.035-6.968,0.144
			c0.523-1.271-0.907-2.466-2.653-2.221c-1.848,0.26-2.99,1.195-4.062,2.664c-0.494,0.678,1.444,0.413,1.785-0.012
			c0.144-0.181,0.288-0.36,0.433-0.541c0.292-0.365-0.249-0.488-0.505-0.497c-3.769-0.129-7.469-0.702-11.242-0.648
			c-0.335,0.005-1.657,0.299-1.288,0.867c0.795,1.228,1.231,1.511,2.553,1.337c1.55-0.203,1.778-0.359,3.393,0.933
			c0.434,0.347,1.499,0.072,1.793-0.37c0.54-0.854,1.116-1.683,1.729-2.486c-0.598,0.123-1.195,0.247-1.793,0.37
			c0.858,0.817,1.592,1.709,2.378,2.596c0.355,0.401,1.344,0.019,1.665-0.242c2.802-2.272,2.898,0.181,5.55,0.164
			c2.637-0.017,2.557-2.929,5.107,0.293c0.35,0.442,1.533-0.016,1.793-0.37c0.466-0.637,0.678-1.685,1.467-1.281
			c0.418,0.213,1.618-0.041,1.737-0.576c0.072-0.324,0.145-0.648,0.217-0.973c0.051-0.229-0.176-0.323-0.36-0.353
			c-3.709-0.591-7.568-0.125-11.313-0.125c-4.948,0-9.896,0-14.843,0C409.577,230.573,408.162,231.579,409.464,231.579
			L409.464,231.579z"/>
	</g>
</g>
<g>
	<g>
		<path fill="#F7931E" d="M436.464,222.579c4.325,0,8.65,0,12.976,0c0.839,0,12.409-0.336,12.176,0.714
			c0.579-0.191,1.158-0.384,1.737-0.576c-2.438-1.246-3.408,0.272-4.803,2.176c0.598-0.123,1.195-0.247,1.793-0.37
			c-1.836-2.319-3.838-3.837-5.968-1.103c-0.605,0.776-2.482-1.608-3.65-1.395c-1.955,0.358-2.791,1.245-4.369,2.524
			c0.555-0.08,1.11-0.161,1.665-0.242c-0.785-0.887-1.519-1.778-2.378-2.596c-0.411-0.392-1.501-0.031-1.793,0.37
			c-0.612,0.804-1.188,1.633-1.729,2.486c0.598-0.123,1.195-0.247,1.793-0.37c-1.093-0.875-2.427-2.178-3.998-1.957
			c-1.738,0.244-0.862,1.361-1.947-0.312c-0.429,0.289-0.858,0.578-1.288,0.867c0.964-0.014,9.678,1.478,10.305,0.692
			c0.595-0.004,1.19-0.008,1.785-0.012c2.3-3.154,3.139-0.462,4.368,0.478c0.336,0.257,0.916,0.137,1.269-0.018
			c1.294-0.565,2.852-2.498,4.461-0.307c0.353,0.48,2.22-0.159,1.801-0.729c-1.15-1.565-6.07-2.035-6.968,0.144
			c0.523-1.271-0.907-2.466-2.653-2.221c-1.848,0.26-2.99,1.195-4.062,2.664c-0.494,0.678,1.444,0.413,1.785-0.012
			c0.144-0.181,0.288-0.36,0.433-0.541c0.292-0.365-0.249-0.488-0.505-0.497c-3.769-0.129-7.469-0.702-11.242-0.648
			c-0.335,0.005-1.657,0.299-1.288,0.867c0.795,1.228,1.231,1.511,2.553,1.337c1.55-0.203,1.778-0.359,3.393,0.933
			c0.434,0.347,1.499,0.072,1.793-0.37c0.54-0.854,1.116-1.683,1.729-2.486c-0.598,0.123-1.195,0.247-1.793,0.37
			c0.858,0.817,1.592,1.709,2.378,2.596c0.355,0.401,1.344,0.019,1.665-0.242c2.802-2.272,2.898,0.181,5.55,0.164
			c2.637-0.017,2.557-2.929,5.107,0.293c0.35,0.442,1.533-0.016,1.793-0.37c0.466-0.637,0.678-1.685,1.467-1.281
			c0.418,0.213,1.618-0.041,1.737-0.576c0.072-0.324,0.145-0.648,0.217-0.973c0.051-0.229-0.176-0.323-0.36-0.353
			c-3.709-0.591-7.568-0.125-11.313-0.125c-4.948,0-9.896,0-14.843,0C436.577,221.573,435.162,222.579,436.464,222.579
			L436.464,222.579z"/>
	</g>
</g>
<g>
	<g>
		<path fill="#F7931E" d="M458.464,190.579c4.325,0,8.65,0,12.976,0c0.839,0,12.409-0.336,12.176,0.714
			c0.579-0.191,1.158-0.384,1.737-0.576c-2.438-1.246-3.408,0.272-4.803,2.176c0.598-0.123,1.195-0.247,1.793-0.37
			c-1.836-2.319-3.838-3.837-5.968-1.103c-0.605,0.776-2.482-1.608-3.65-1.395c-1.955,0.358-2.791,1.245-4.369,2.524
			c0.555-0.08,1.11-0.161,1.665-0.242c-0.785-0.887-1.519-1.778-2.378-2.596c-0.411-0.392-1.501-0.031-1.793,0.37
			c-0.612,0.804-1.188,1.633-1.729,2.486c0.598-0.123,1.195-0.247,1.793-0.37c-1.093-0.875-2.427-2.178-3.998-1.957
			c-1.738,0.244-0.862,1.361-1.947-0.312c-0.429,0.289-0.858,0.578-1.288,0.867c0.964-0.014,9.678,1.478,10.305,0.692
			c0.595-0.004,1.19-0.008,1.785-0.012c2.3-3.154,3.139-0.462,4.368,0.478c0.336,0.257,0.916,0.137,1.269-0.018
			c1.294-0.565,2.852-2.498,4.461-0.307c0.353,0.48,2.22-0.159,1.801-0.729c-1.15-1.565-6.07-2.035-6.968,0.144
			c0.523-1.271-0.907-2.466-2.653-2.221c-1.848,0.26-2.99,1.195-4.062,2.664c-0.494,0.678,1.444,0.413,1.785-0.012
			c0.144-0.181,0.288-0.36,0.433-0.541c0.292-0.365-0.249-0.488-0.505-0.497c-3.769-0.129-7.469-0.702-11.242-0.648
			c-0.335,0.005-1.657,0.299-1.288,0.867c0.795,1.228,1.231,1.511,2.553,1.337c1.55-0.203,1.778-0.359,3.393,0.933
			c0.434,0.347,1.499,0.072,1.793-0.37c0.54-0.854,1.116-1.683,1.729-2.486c-0.598,0.123-1.195,0.247-1.793,0.37
			c0.858,0.817,1.592,1.709,2.378,2.596c0.355,0.401,1.344,0.019,1.665-0.242c2.802-2.272,2.898,0.181,5.55,0.164
			c2.637-0.017,2.557-2.929,5.107,0.293c0.35,0.442,1.533-0.016,1.793-0.37c0.466-0.637,0.678-1.685,1.467-1.281
			c0.418,0.213,1.618-0.041,1.737-0.576c0.072-0.324,0.145-0.648,0.217-0.973c0.051-0.229-0.176-0.323-0.36-0.353
			c-3.709-0.591-7.568-0.125-11.313-0.125c-4.948,0-9.896,0-14.843,0C458.577,189.573,457.162,190.579,458.464,190.579
			L458.464,190.579z"/>
	</g>
</g>
<g>
	<g>
		<path fill="#F7931E" d="M469.464,206.579c4.325,0,8.65,0,12.976,0c0.839,0,12.409-0.336,12.176,0.714
			c0.579-0.191,1.158-0.384,1.737-0.576c-2.438-1.246-3.408,0.272-4.803,2.176c0.598-0.123,1.195-0.247,1.793-0.37
			c-1.836-2.319-3.838-3.837-5.968-1.103c-0.605,0.776-2.482-1.608-3.65-1.395c-1.955,0.358-2.791,1.245-4.369,2.524
			c0.555-0.08,1.11-0.161,1.665-0.242c-0.785-0.887-1.519-1.778-2.378-2.596c-0.411-0.392-1.501-0.031-1.793,0.37
			c-0.612,0.804-1.188,1.633-1.729,2.486c0.598-0.123,1.195-0.247,1.793-0.37c-1.093-0.875-2.427-2.178-3.998-1.957
			c-1.738,0.244-0.862,1.361-1.947-0.312c-0.429,0.289-0.858,0.578-1.288,0.867c0.964-0.014,9.678,1.478,10.305,0.692
			c0.595-0.004,1.19-0.008,1.785-0.012c2.3-3.154,3.139-0.462,4.368,0.478c0.336,0.257,0.916,0.137,1.269-0.018
			c1.294-0.565,2.852-2.498,4.461-0.307c0.353,0.48,2.22-0.159,1.801-0.729c-1.15-1.565-6.07-2.035-6.968,0.144
			c0.523-1.271-0.907-2.466-2.653-2.221c-1.848,0.26-2.99,1.195-4.062,2.664c-0.494,0.678,1.444,0.413,1.785-0.012
			c0.144-0.181,0.288-0.36,0.433-0.541c0.292-0.365-0.249-0.488-0.505-0.497c-3.769-0.129-7.469-0.702-11.242-0.648
			c-0.335,0.005-1.657,0.299-1.288,0.867c0.795,1.228,1.231,1.511,2.553,1.337c1.55-0.203,1.778-0.359,3.393,0.933
			c0.434,0.347,1.499,0.072,1.793-0.37c0.54-0.854,1.116-1.683,1.729-2.486c-0.598,0.123-1.195,0.247-1.793,0.37
			c0.858,0.817,1.592,1.709,2.378,2.596c0.355,0.401,1.344,0.019,1.665-0.242c2.802-2.272,2.898,0.181,5.55,0.164
			c2.637-0.017,2.557-2.929,5.107,0.293c0.35,0.442,1.533-0.016,1.793-0.37c0.466-0.637,0.678-1.685,1.467-1.281
			c0.418,0.213,1.618-0.041,1.737-0.576c0.072-0.324,0.145-0.648,0.217-0.973c0.051-0.229-0.176-0.323-0.36-0.353
			c-3.709-0.591-7.568-0.125-11.313-0.125c-4.948,0-9.896,0-14.843,0C469.577,205.573,468.162,206.579,469.464,206.579
			L469.464,206.579z"/>
	</g>
</g>
<g>
	<g>
		<path fill="#F7931E" d="M477.464,227.579c4.325,0,8.65,0,12.976,0c0.839,0,12.409-0.336,12.176,0.714
			c0.579-0.191,1.158-0.384,1.737-0.576c-2.438-1.246-3.408,0.272-4.803,2.176c0.598-0.123,1.195-0.247,1.793-0.37
			c-1.836-2.319-3.838-3.837-5.968-1.103c-0.605,0.776-2.482-1.608-3.65-1.395c-1.955,0.358-2.791,1.245-4.369,2.524
			c0.555-0.08,1.11-0.161,1.665-0.242c-0.785-0.887-1.519-1.778-2.378-2.596c-0.411-0.392-1.501-0.031-1.793,0.37
			c-0.612,0.804-1.188,1.633-1.729,2.486c0.598-0.123,1.195-0.247,1.793-0.37c-1.093-0.875-2.427-2.178-3.998-1.957
			c-1.738,0.244-0.862,1.361-1.947-0.312c-0.429,0.289-0.858,0.578-1.288,0.867c0.964-0.014,9.678,1.478,10.305,0.692
			c0.595-0.004,1.19-0.008,1.785-0.012c2.3-3.154,3.139-0.462,4.368,0.478c0.336,0.257,0.916,0.137,1.269-0.018
			c1.294-0.565,2.852-2.498,4.461-0.307c0.353,0.48,2.22-0.159,1.801-0.729c-1.15-1.565-6.07-2.035-6.968,0.144
			c0.523-1.271-0.907-2.466-2.653-2.221c-1.848,0.26-2.99,1.195-4.062,2.664c-0.494,0.678,1.444,0.413,1.785-0.012
			c0.144-0.181,0.288-0.36,0.433-0.541c0.292-0.365-0.249-0.488-0.505-0.497c-3.769-0.129-7.469-0.702-11.242-0.648
			c-0.335,0.005-1.657,0.299-1.288,0.867c0.795,1.228,1.231,1.511,2.553,1.337c1.55-0.203,1.778-0.359,3.393,0.933
			c0.434,0.347,1.499,0.072,1.793-0.37c0.54-0.854,1.116-1.683,1.729-2.486c-0.598,0.123-1.195,0.247-1.793,0.37
			c0.858,0.817,1.592,1.709,2.378,2.596c0.355,0.401,1.344,0.019,1.665-0.242c2.802-2.272,2.898,0.181,5.55,0.164
			c2.637-0.017,2.557-2.929,5.107,0.293c0.35,0.442,1.533-0.016,1.793-0.37c0.466-0.637,0.678-1.685,1.467-1.281
			c0.418,0.213,1.618-0.041,1.737-0.576c0.072-0.324,0.145-0.648,0.217-0.973c0.051-0.229-0.176-0.323-0.36-0.353
			c-3.709-0.591-7.568-0.125-11.313-0.125c-4.948,0-9.896,0-14.843,0C477.577,226.573,476.162,227.579,477.464,227.579
			L477.464,227.579z"/>
	</g>
</g>
<g>
	<g>
		<path fill="#F7931E" d="M426.464,241.579c4.325,0,8.65,0,12.976,0c0.839,0,12.409-0.336,12.176,0.714
			c0.579-0.191,1.158-0.384,1.737-0.576c-2.438-1.246-3.408,0.272-4.803,2.176c0.598-0.123,1.195-0.247,1.793-0.37
			c-1.836-2.319-3.838-3.837-5.968-1.103c-0.605,0.776-2.482-1.608-3.65-1.395c-1.955,0.358-2.791,1.245-4.369,2.524
			c0.555-0.08,1.11-0.161,1.665-0.242c-0.785-0.887-1.519-1.778-2.378-2.596c-0.411-0.392-1.501-0.031-1.793,0.37
			c-0.612,0.804-1.188,1.633-1.729,2.486c0.598-0.123,1.195-0.247,1.793-0.37c-1.093-0.875-2.427-2.178-3.998-1.957
			c-1.738,0.244-0.862,1.361-1.947-0.312c-0.429,0.289-0.858,0.578-1.288,0.867c0.964-0.014,9.678,1.478,10.305,0.692
			c0.595-0.004,1.19-0.008,1.785-0.012c2.3-3.154,3.139-0.462,4.368,0.478c0.336,0.257,0.916,0.137,1.269-0.018
			c1.294-0.565,2.852-2.498,4.461-0.307c0.353,0.48,2.22-0.159,1.801-0.729c-1.15-1.565-6.07-2.035-6.968,0.144
			c0.523-1.271-0.907-2.466-2.653-2.221c-1.848,0.26-2.99,1.195-4.062,2.664c-0.494,0.678,1.444,0.413,1.785-0.012
			c0.144-0.181,0.288-0.36,0.433-0.541c0.292-0.365-0.249-0.488-0.505-0.497c-3.769-0.129-7.469-0.702-11.242-0.648
			c-0.335,0.005-1.657,0.299-1.288,0.867c0.795,1.228,1.231,1.511,2.553,1.337c1.55-0.203,1.778-0.359,3.393,0.933
			c0.434,0.347,1.499,0.072,1.793-0.37c0.54-0.854,1.116-1.683,1.729-2.486c-0.598,0.123-1.195,0.247-1.793,0.37
			c0.858,0.817,1.592,1.709,2.378,2.596c0.355,0.401,1.344,0.019,1.665-0.242c2.802-2.272,2.898,0.181,5.55,0.164
			c2.637-0.017,2.557-2.929,5.107,0.293c0.35,0.442,1.533-0.016,1.793-0.37c0.466-0.637,0.678-1.685,1.467-1.281
			c0.418,0.213,1.618-0.041,1.737-0.576c0.072-0.324,0.145-0.648,0.217-0.973c0.051-0.229-0.176-0.323-0.36-0.353
			c-3.709-0.591-7.568-0.125-11.313-0.125c-4.948,0-9.896,0-14.843,0C426.577,240.573,425.162,241.579,426.464,241.579
			L426.464,241.579z"/>
	</g>
</g>
<path fill="#12A012" stroke="#268426" stroke-miterlimit="10" d="M473.574,93.076"/>
<polygon fill="#12A012" stroke="#268426" stroke-miterlimit="10" points="611.68,208.104 611.629,199.583 604.197,199.633 
	610.834,197.118 603.488,193.395 611.174,194.649 605.865,188.36 612.518,193.422 612.931,185.583 615.576,194.005 618.74,186.809 
	615.5,198 622.723,188.134 620.779,195.167 630.885,192.528 623.553,196.622 633.215,197.449 622.926,199.365 628.926,204.365 
	620.222,201.459 616.041,208.878 "/>
<path fill="#EF2929" stroke="#C11E41" stroke-width="3" stroke-miterlimit="10" d="M635.618,219.655
	c-0.746,5.128-3.015,12.187-6.993,15.943c-3.342,3.157-7.33,0.933-12.121,0.933c-4.796,0-9.681,1.552-13.024-1.611
	c-3.972-3.757-6.555-10.143-6.555-16.29c0-4.692,2.62-12.188,3.822-13.333c1.958-1.864,3.768-4.333,16.224-4.289
	c14.496,0.051,16.224,4.288,17.809,7.179C634.88,208.369,636.146,216.03,635.618,219.655z"/>
<path fill="#F7DCC4" stroke="#A86D45" stroke-width="3" stroke-miterlimit="10" d="M580.907,166.113
	c1.229,0.512-3.436,8.151-2.237,9.031s17.501-8.151,18.141-9.59s-10.069-0.079-10.709-2.078s1.132-9.434,0.8-18.461
	c-0.26-7.064-2.683-13.405-3.114-14.831c-2.915-9.625-12.021-20.642-26.414-22.641C545.561,105.903,537,107.667,526,121
	c-6.709,8.132-11.327,31.677-7.5,41.5c5.166,13.26,31.326,33.638,40.5,40c4.125,2.861-1.86,19.864-6.877,20.052
	c-5.521,0.207-11.076-17.375-15.73-20.633c0,0-15.467-2.937-17.182-7.273c-0.996-2.521,7.082-10.258,4.395-9.909
	c-4.315,0.56-15.344,1.519-19.739,3.996c-2.815,1.587,10.629,5.913,10.949,6.873c0.218,0.652-3.38,6.767-3.38,6.767
	c-4.549,9.444,12.332,31.503,21.064,36.628c10.271,6.028,25.693,8.817,40.131,0.45c7.532-4.365,17.173-21.688,17.369-30.45
	c0.152-6.837-3.977-20.871-8.5-26c-4.751-5.386-19.326-10.02-24.5-15c-4.392-4.228-10.929-11.96-10.783-21.245
	c0.164-10.5,1.641-20.508,9.023-15.586c2.932,1.954,2.506,14.492,3.45,19.361c1.038,5.354,4.954,11.829,6.952,13.187
	C568.6,166.593,578.03,164.915,580.907,166.113z"/>
<path fill="#FCC6B1" stroke="#A86D45" stroke-width="3" stroke-miterlimit="10" d="M586.422,163.956"/>
<path fill="none" stroke="#A86D45" stroke-width="2" stroke-miterlimit="10" d="M529,118.333c1.979,2.51,3.829,4.145,4.667,7.333"/>
<path fill="none" stroke="#A86D45" stroke-width="2" stroke-miterlimit="10" d="M538,111.333c1.148,0.656,1.865,5.619,2.334,7.333"
	/>
<path fill="none" stroke="#A86D45" stroke-width="2" stroke-miterlimit="10" d="M549.334,107.667c1.049,2.833,2.436,4.952,1,8"/>
<path fill="none" stroke="#A86D45" stroke-width="2" stroke-miterlimit="10" d="M562.552,109.039c0,3.796-0.352,7.122-1.552,10.294"
	/>
<path fill="none" stroke="#A86D45" stroke-width="2" stroke-miterlimit="10" d="M574.334,115.667c0.385,3.707-2.911,7.389-5,10"/>
<path fill="none" stroke="#A86D45" stroke-width="2" stroke-miterlimit="10" d="M582,126.333c-2.232,2.736-4.431,5.736-6.666,8.333"
	/>
<path fill="none" stroke="#A86D45" stroke-width="2" stroke-miterlimit="10" d="M520.334,134.333
	c0.229,1.742,0.84,3.396,2.333,4.333"/>
<path fill="none" stroke="#A86D45" stroke-width="2" stroke-miterlimit="10" d="M541.334,211.667"/>
<path fill="none" stroke="#A86D45" stroke-width="2" stroke-miterlimit="10" d="M534.667,213.333"/>
<path fill="none" stroke="#A86D45" stroke-width="2" stroke-miterlimit="10" d="M540.234,220.408c0.023-0.009,4.844-4.37,4.861-4.42
	"/>
<path fill="none" stroke="#A86D45" stroke-width="2" stroke-miterlimit="10" d="M549.334,221.333
	c0.047,2.522-1.298,4.276-2.25,6.367"/>
<path fill="none" stroke="#A86D45" stroke-width="2" stroke-miterlimit="10" d="M554.334,222.333
	c2.316,1.536,2.915,3.157,4.462,5.588"/>
<path fill="none" stroke="#A86D45" stroke-width="2" stroke-miterlimit="10" d="M559.334,214.667
	c1.893,1.764,4.479,3.511,5.648,5.962"/>
<path fill="none" stroke="#A86D45" stroke-width="2" stroke-miterlimit="10" d="M561,207c2.657,1.255,3.541,2.802,6.192,3.686"/>
<path fill="none" stroke="#A86D45" stroke-width="2" stroke-miterlimit="10" d="M523.22,126.054c1.09,1.926,2.822,4.453,4.861,5.303
	"/>
<path fill="none" stroke="#A86D45" stroke-width="2" stroke-miterlimit="10" d="M540.234,208.696
	c-2.442,0.061-4.207,3.486-4.641,5.745"/>
<path fill="none" stroke="#A86D45" stroke-width="2" stroke-miterlimit="10" d="M219,363c0.222,0.223,0.444,0.444,0.667,0.667"/>
</svg>
